<svg width="30" height="18" viewBox="0 0 30 18" fill="none" xmlns="http://www.w3.org/2000/svg">
<g clip-path="url(#clip0_24_2214)">
<path fill-rule="evenodd" clip-rule="evenodd" d="M15.0476 14.7343C18.349 14.7343 21.0254 12.058 21.0254 8.75649C21.0254 5.45504 18.349 2.77869 15.0476 2.77869C11.7461 2.77869 9.06974 5.45504 9.06974 8.75649C9.06974 12.058 11.7461 14.7343 15.0476 14.7343ZM12.677 12.8623L19.7885 8.75652L12.677 4.65068V12.8623Z" fill="#7F2A28"/>
<path d="M6.62834 12.6114L5.29992 13.5292C3.02262 9.71103 4.47755 5.57466 5.48969 3.98376L6.81811 4.90159C4.69263 8.13236 5.80597 11.3876 6.62834 12.6114Z" fill="#7F2A28"/>
<path d="M23.3717 12.6114L24.7001 13.5292C26.9774 9.71103 25.5224 5.57466 24.5103 3.98376L23.1819 4.90159C25.3074 8.13236 24.194 11.3876 23.3717 12.6114Z" fill="#7F2A28"/>
<path d="M2.71721 -0.107117L4.09091 0.923539C-0.147963 7.35483 2.32471 13.9098 4.09091 16.3833C3.63301 16.7041 2.75645 17.4007 2.91345 17.6202C-2.26738 10.5292 0.623942 2.84743 2.71721 -0.107117Z" fill="#7F2A28"/>
<path d="M27.2828 -0.107117L25.9091 0.923539C30.148 7.35483 27.6753 13.9098 25.9091 16.3833C26.367 16.7041 27.2435 17.4007 27.0866 17.6202C32.2674 10.5292 29.3761 2.84743 27.2828 -0.107117Z" fill="#7F2A28"/>
</g>
<defs>
<clipPath id="clip0_24_2214">
<rect width="30" height="18.2143" fill="white" transform="translate(0 -0.107117)"/>
</clipPath>
</defs>
</svg>
