<svg width="20" height="22" viewBox="0 0 20 22" fill="none" xmlns="http://www.w3.org/2000/svg">
<g clip-path="url(#clip0_24_2258)">
<g clip-path="url(#clip1_24_2258)">
<g clip-path="url(#clip2_24_2258)">
<path d="M19.7556 18.8403L14.0682 13.1529C15.1698 11.7921 15.8331 10.0629 15.8331 8.17959C15.8331 3.81464 12.2815 0.263 7.91655 0.263C3.5516 0.263 0 3.8146 0 8.17955C0 12.5445 3.55164 16.0962 7.91659 16.0962C9.79989 16.0962 11.5291 15.4328 12.8899 14.3312L18.5773 20.0186C18.7398 20.1811 18.9531 20.2628 19.1665 20.2628C19.3798 20.2628 19.5931 20.1811 19.7556 20.0186C20.0815 19.6928 20.0815 19.1661 19.7556 18.8403ZM7.91659 14.4295C4.46995 14.4295 1.66666 11.6262 1.66666 8.17955C1.66666 4.73291 4.46995 1.92962 7.91659 1.92962C11.3632 1.92962 14.1665 4.73291 14.1665 8.17955C14.1665 11.6262 11.3632 14.4295 7.91659 14.4295Z" fill="#212121"/>
</g>
</g>
</g>
<defs>
<clipPath id="clip0_24_2258">
<rect width="20" height="21" fill="white" transform="translate(0 0.26001)"/>
</clipPath>
<clipPath id="clip1_24_2258">
<rect width="20" height="21" fill="white" transform="translate(0 0.26001)"/>
</clipPath>
<clipPath id="clip2_24_2258">
<rect width="20" height="21" fill="white" transform="translate(0 0.26001)"/>
</clipPath>
</defs>
</svg>
